<svg height="512pt" viewBox="0 -98 512.00114 512" width="512pt" xmlns="http://www.w3.org/2000/svg"><path d="m445.839844 250.773438c-1.378906-50.085938-22.238282-95.671876-55.542969-128.984376h-.003906c-35.476563-35.46875-83.464844-55.628906-134.292969-55.628906-49.273438 0-97.785156 19.117188-134.296875 55.628906-35.554687 35.558594-54.234375 82.023438-55.542969 128.996094-.070312 2.523438-2.160156 4.523438-4.683594 4.523438h389.042969c-2.527343-.003906-4.609375-2.007813-4.679687-4.535156zm0 0" fill="#e4eaf8"/><path d="m156.734375 123.929688c32.21875-33.460938 73.785156-52.84375 116.96875-56.9375-5.851563-.546876-11.757813-.832032-17.703125-.832032-49.273438 0-97.785156 19.117188-134.296875 55.625-35.554687 35.5625-54.234375 82.023438-55.542969 128.996094-.070312 2.523438-2.160156 4.523438-4.683594 4.523438h39.808594c1.890625-47.898438 20.523438-95.097657 55.449219-131.375zm0 0" fill="#d8dce5"/><path d="m437.0625 75.003906c-48.140625-48.121094-112.949219-75.003906-181.0625-75.003906v69.636719c49.894531 0 97 19.789062 131.824219 54.605469zm0 0" fill="#feca57"/><path d="m74.933594 75 49.242187 49.242188c35.015625-35.015626 82.230469-54.605469 131.824219-54.605469v-69.636719c-64.5 0-127.21875 23.078125-181.066406 75zm0 0" fill="#15ba8b"/><path d="m74.933594 75 49.242187 49.242188c35.015625-35.015626 82.230469-54.605469 131.824219-54.605469v-69.636719c-64.5 0-127.21875 23.078125-181.066406 75zm0 0" fill="#15ba8b"/><path d="m0 250.574219c-.0546875 2.589843 2.015625 4.730469 4.605469 4.730469h60.449219c2.476562 0 4.527343-1.960938 4.597656-4.4375 1.28125-46.113282 19.621094-91.71875 54.523437-126.625l-49.242187-49.242188c-46.289063 46.289062-73.515625 108.722656-74.933594 175.574219zm0 0" fill="#54a0ff"/><path d="m106.652344 73.046875c43.621094-42.0625 93.007812-65.382813 144.460937-72.9921875-62.777343 1.1406245-123.691406 24.3359375-176.179687 74.9453125l15.660156 15.660156c5.066406-6.089844 10.421875-11.972656 16.058594-17.613281zm0 0" fill="#11aa7b"/><path d="m35.566406 255.304688c-2.621094 0-4.714844-2.164063-4.65625-4.78125 1.257813-59.433594 22.707032-115.402344 59.683594-159.863282l-15.660156-15.660156c-46.289063 46.289062-73.515625 108.722656-74.933594 175.574219-.0546875 2.589843 2.015625 4.730469 4.605469 4.730469h60.449219zm0 0" fill="#338def"/><path d="m437.066406 75-49.242187 49.242188c32.699219 32.703124 53.171875 77.449218 54.523437 126.617187.070313 2.480469 2.117188 4.445313 4.597656 4.445313h60.449219c2.589844 0 4.660157-2.136719 4.605469-4.730469-1.394531-65.207031-27.550781-128.207031-74.933594-175.574219zm0 0" fill="#ff6b6b"/><path d="m331.257812 264.253906 37.398438-121.007812c1.546875-5.011719-3.148438-9.707032-8.15625-8.160156l-121.011719 37.398437c-52.789062 16.316406-69.285156 82.917969-30.214843 121.984375 39.070312 39.070312 105.667968 22.574219 121.984374-30.214844zm0 0" fill="#ff6b6b"/><path d="m240.179688 294.46875c-39.070313-39.066406-22.570313-105.667969 30.21875-121.984375l98.5-30.441406c.53125-4.523438-3.792969-8.378907-8.398438-6.957031l-121.011719 37.398437c-52.789062 16.316406-69.285156 82.917969-30.214843 121.984375 18.878906 18.878906 44.183593 24.78125 67.136718 19.886719-13.0625-2.8125-25.65625-9.308594-36.230468-19.886719zm0 0" fill="#ee5253"/><path d="m282.476562 221.261719c-12.292968-12.296875-32.226562-12.296875-44.523437 0-12.292969 12.292969-12.292969 32.226562 0 44.523437 12.296875 12.292969 32.230469 12.292969 44.523437 0 12.296876-12.296875 12.296876-32.230468 0-44.523437zm0 0" fill="#ee5253"/><path d="m275.960938 216.253906c-12.039063-6.960937-27.699219-5.292968-38.003907 5.007813-12.292969 12.292969-12.292969 32.230469 0 44.523437 10.300781 10.300782 25.964844 11.964844 38.003907 5.007813-21.050782-12.171875-20.878907-42.464844 0-54.539063zm0 0" fill="#d83941"/></svg>